<svg width="103" height="35" viewBox="0 0 103 35" fill="none" xmlns="http://www.w3.org/2000/svg">
<path d="M62.9023 23.668V26H53.8438V23.668H62.9023ZM54.6758 8.9375V26H51.7344V8.9375H54.6758ZM61.7188 16.0625V18.3594H53.8438V16.0625H61.7188ZM62.8438 8.9375V11.2812H53.8438V8.9375H62.8438ZM77.1875 20.5742H73.1328L73.1094 18.582H76.4375C76.9844 18.582 77.4336 18.5273 77.7852 18.418C78.1445 18.3086 78.4102 18.1445 78.582 17.9258C78.7539 17.6992 78.8398 17.4258 78.8398 17.1055C78.8398 16.8398 78.7891 16.6094 78.6875 16.4141C78.5859 16.2109 78.4297 16.0469 78.2188 15.9219C78.0156 15.7891 77.7578 15.6953 77.4453 15.6406C77.1406 15.5781 76.7852 15.5469 76.3789 15.5469H74.0703V26H71.2461V13.3203H76.3789C77.1914 13.3203 77.9219 13.3906 78.5703 13.5312C79.2266 13.6719 79.7852 13.8867 80.2461 14.1758C80.707 14.4648 81.0586 14.832 81.3008 15.2773C81.5508 15.7148 81.6758 16.2305 81.6758 16.8242C81.6758 17.2148 81.5898 17.582 81.418 17.9258C81.2539 18.2695 81.0078 18.5742 80.6797 18.8398C80.3516 19.1055 79.9492 19.3242 79.4727 19.4961C78.9961 19.6602 78.4492 19.7617 77.832 19.8008L77.1875 20.5742ZM77.1875 26H72.3125L73.4375 23.7734H77.1875C77.6875 23.7734 78.1016 23.7109 78.4297 23.5859C78.7578 23.4609 79 23.2812 79.1562 23.0469C79.3203 22.8047 79.4023 22.5195 79.4023 22.1914C79.4023 21.8555 79.3242 21.5664 79.168 21.3242C79.0117 21.082 78.7695 20.8984 78.4414 20.7734C78.1211 20.6406 77.7031 20.5742 77.1875 20.5742H73.9648L73.9883 18.582H77.8203L78.6289 19.3555C79.4336 19.4102 80.1016 19.582 80.6328 19.8711C81.1641 20.1602 81.5625 20.5234 81.8281 20.9609C82.0938 21.3984 82.2266 21.875 82.2266 22.3906C82.2266 22.9844 82.1133 23.5078 81.8867 23.9609C81.668 24.4141 81.3398 24.793 80.9023 25.0977C80.4727 25.3945 79.9453 25.6211 79.3203 25.7773C78.6953 25.9258 77.9844 26 77.1875 26ZM97.8125 23.457V17.4102C97.8125 16.957 97.7305 16.5664 97.5664 16.2383C97.4023 15.9102 97.1523 15.6562 96.8164 15.4766C96.4883 15.2969 96.0742 15.207 95.5742 15.207C95.1133 15.207 94.7148 15.2852 94.3789 15.4414C94.043 15.5977 93.7812 15.8086 93.5938 16.0742C93.4062 16.3398 93.3125 16.6406 93.3125 16.9766H90.5C90.5 16.4766 90.6211 15.9922 90.8633 15.5234C91.1055 15.0547 91.457 14.6367 91.918 14.2695C92.3789 13.9023 92.9297 13.6133 93.5703 13.4023C94.2109 13.1914 94.9297 13.0859 95.7266 13.0859C96.6797 13.0859 97.5234 13.2461 98.2578 13.5664C99 13.8867 99.582 14.3711 100.004 15.0195C100.434 15.6602 100.648 16.4648 100.648 17.4336V23.0703C100.648 23.6484 100.688 24.168 100.766 24.6289C100.852 25.082 100.973 25.4766 101.129 25.8125V26H98.2344C98.1016 25.6953 97.9961 25.3086 97.918 24.8398C97.8477 24.3633 97.8125 23.9023 97.8125 23.457ZM98.2227 18.2891L98.2461 20.0352H96.2188C95.6953 20.0352 95.2344 20.0859 94.8359 20.1875C94.4375 20.2812 94.1055 20.4219 93.8398 20.6094C93.5742 20.7969 93.375 21.0234 93.2422 21.2891C93.1094 21.5547 93.043 21.8555 93.043 22.1914C93.043 22.5273 93.1211 22.8359 93.2773 23.1172C93.4336 23.3906 93.6602 23.6055 93.957 23.7617C94.2617 23.918 94.6289 23.9961 95.0586 23.9961C95.6367 23.9961 96.1406 23.8789 96.5703 23.6445C97.0078 23.4023 97.3516 23.1094 97.6016 22.7656C97.8516 22.4141 97.9844 22.082 98 21.7695L98.9141 23.0234C98.8203 23.3438 98.6602 23.6875 98.4336 24.0547C98.207 24.4219 97.9102 24.7734 97.543 25.1094C97.1836 25.4375 96.75 25.707 96.2422 25.918C95.7422 26.1289 95.1641 26.2344 94.5078 26.2344C93.6797 26.2344 92.9414 26.0703 92.293 25.7422C91.6445 25.4062 91.1367 24.957 90.7695 24.3945C90.4023 23.8242 90.2188 23.1797 90.2188 22.4609C90.2188 21.7891 90.3438 21.1953 90.5938 20.6797C90.8516 20.1562 91.2266 19.7188 91.7188 19.3672C92.2188 19.0156 92.8281 18.75 93.5469 18.5703C94.2656 18.3828 95.0859 18.2891 96.0078 18.2891H98.2227Z" fill="#334155"/>
<path d="M12.3292 6.06228C13.3806 2.98543 17.6319 2.89224 18.8785 5.78273L18.984 6.06404L20.4028 10.2134C20.728 11.165 21.2535 12.0358 21.9438 12.7671C22.6341 13.4983 23.4732 14.073 24.4045 14.4524L24.786 14.5948L28.9354 16.012C32.0123 17.0634 32.1054 21.3147 29.2167 22.5613L28.9354 22.6667L24.786 24.0856C23.8341 24.4106 22.963 24.9359 22.2314 25.6263C21.4998 26.3166 20.9249 27.1558 20.5453 28.0873L20.4028 28.4671L18.9857 32.6182C17.9343 35.695 13.683 35.7882 12.4382 32.8995L12.3292 32.6182L10.9121 28.4688C10.5871 27.5169 10.0618 26.6458 9.37143 25.9142C8.6811 25.1826 7.84188 24.6076 6.9104 24.228L6.53063 24.0856L2.38127 22.6685C-0.697342 21.6171 -0.790527 17.3658 2.09996 16.121L2.38127 16.012L6.53063 14.5948C7.48223 14.2697 8.35302 13.7442 9.08428 13.0539C9.81554 12.3636 10.3903 11.5245 10.7697 10.5932L10.9121 10.2134L12.3292 6.06228ZM29.7231 3.17685e-07C30.052 -4.14887e-07 30.3743 0.0922675 30.6534 0.266318C30.9325 0.440368 31.1572 0.68922 31.3019 0.984594L31.3863 1.1903L32.0017 2.99422L33.8074 3.60959C34.137 3.72158 34.426 3.92891 34.6377 4.2053C34.8493 4.48169 34.9742 4.81469 34.9964 5.16212C35.0186 5.50955 34.9372 5.85575 34.7625 6.15685C34.5877 6.45795 34.3275 6.7004 34.0149 6.85347L33.8074 6.93787L32.0035 7.55324L31.3881 9.35891C31.2759 9.68845 31.0684 9.97727 30.7919 10.1888C30.5154 10.4003 30.1824 10.5249 29.835 10.547C29.4876 10.569 29.1414 10.4874 28.8404 10.3125C28.5394 10.1376 28.2971 9.87735 28.1442 9.56462L28.0598 9.35891L27.4445 7.555L25.6388 6.93963C25.3091 6.82764 25.0202 6.62031 24.8085 6.34392C24.5968 6.06753 24.472 5.73452 24.4497 5.3871C24.4275 5.03967 24.5089 4.69347 24.6837 4.39236C24.8584 4.09126 25.1186 3.84881 25.4313 3.69574L25.6388 3.61135L27.4427 2.99598L28.0581 1.1903C28.1766 0.842927 28.4009 0.541366 28.6995 0.327903C28.9981 0.11444 29.356 -0.00022027 29.7231 3.17685e-07Z" fill="url(#paint0_linear_32_108)"/>
<defs>
<linearGradient id="paint0_linear_32_108" x1="17.5" y1="0" x2="17.5" y2="34.9981" gradientUnits="userSpaceOnUse">
<stop stop-color="#459AFF"/>
<stop offset="1" stop-color="#6054FF"/>
</linearGradient>
</defs>
</svg>
